<?xml version="1.0" encoding="utf-8"?>
<svg xmlns="http://www.w3.org/2000/svg" fill="none" height="177" viewBox="0 0 432 177" width="432">
<path clip-rule="evenodd" d="M79.3759 64.0232C77.2342 37.6439 58.4957 14.3915 31.2731 7.67327C27.5088 6.74459 23.7387 6.16857 20.004 5.92758C20.004 5.92758 31.1433 12.8868 25.7624 35.6631C23.5912 44.8735 30.0104 59.5032 34.7128 70.4005C39.4151 81.292 29.2552 81.2215 24.6414 81.051C20.0276 80.8864 18.47 87.3167 20.2518 93.1121C22.0336 98.9017 14.9123 98.6078 14.9123 98.6078C14.9123 98.6078 15.3253 106.984 10.8295 108.306C6.33369 109.629 6.94139 117.082 6.95319 122.924C6.96499 128.767 0.634277 130.612 0.634277 130.612C23.9924 136.378 47.5335 128.484 62.7673 112.033C61.9295 101.77 63.5933 91.1607 68.1068 81.098C70.9978 74.6619 74.8329 68.937 79.3759 64.0232Z" fill="#ED1A60" fill-rule="evenodd"/>
<path clip-rule="evenodd" d="M152.136 49.0976C126.524 37.7124 97.378 44.5482 79.3771 64.0212C79.9199 70.6807 79.4007 77.54 77.6956 84.3817C75.0288 95.0792 69.7778 104.46 62.7686 112.031C64.5976 134.331 78.2679 154.979 100.24 164.748C100.24 164.748 96.3927 159.423 100.015 154.821C103.638 150.224 108.73 144.728 106.004 140.926C103.278 137.134 108.789 130.781 108.789 130.781C108.789 130.781 102.995 126.649 107.98 123.181C112.966 119.707 115.715 113.682 111.975 110.984C108.24 108.286 100.186 102.121 110.629 96.4193C121.072 90.712 135.179 83.118 139.162 74.5306C149.009 53.2884 162.095 54.6286 162.095 54.6286C159.004 52.5302 155.676 50.6729 152.136 49.0976Z" fill="#FFB100" fill-rule="evenodd"/>
<path clip-rule="evenodd" d="M77.6969 84.3843C79.402 77.5426 79.9153 70.6832 79.3784 64.0179C74.8295 68.9376 70.9945 74.6566 68.1094 81.0986C63.59 91.1613 61.9262 101.771 62.7699 112.033C69.7791 104.463 75.0301 95.0818 77.6969 84.3843Z" fill="#C30000" fill-rule="evenodd"/>
<path clip-rule="evenodd" d="M231.278 70.043H247.615C247.296 66.4929 243.898 63.5187 239.868 63.5187C235.626 63.5187 231.809 66.3988 231.278 70.043ZM219.838 74.8396C219.838 64.001 228.193 54.6965 239.892 54.6965C250.017 54.6965 258.277 62.1789 258.277 72.5355C258.277 73.2055 258.177 74.4575 258.076 75.1276C257.976 76.0856 257.091 76.7557 256.212 76.7557H231.048C231.343 80.6879 234.783 85.1021 240.482 85.1021C243.527 85.1021 246.382 83.9501 248.147 82.704C249.132 82.128 250.017 81.934 250.707 82.704L254.737 87.2122C255.421 87.8823 255.622 88.9344 254.637 89.7044C251.392 92.6785 246.382 94.9767 239.993 94.9767C228.193 94.9767 219.838 85.8662 219.838 74.8396ZM308.125 140.776C307.807 137.226 304.414 134.252 300.379 134.252C296.137 134.252 292.319 137.126 291.788 140.776H308.125ZM318.786 143.268C318.786 143.938 318.686 145.184 318.592 145.854C318.491 146.812 317.606 147.488 316.721 147.488H291.558C291.853 151.42 295.292 155.829 300.992 155.829C304.042 155.829 306.892 154.677 308.662 153.431C309.647 152.855 310.526 152.667 311.217 153.431L315.246 157.939C315.937 158.609 316.131 159.667 315.152 160.431C311.907 163.405 306.892 165.709 300.502 165.709C288.708 165.709 280.354 156.599 280.354 145.566C280.354 134.734 288.708 125.429 300.402 125.429C310.526 125.429 318.786 132.906 318.786 143.268ZM366.782 54.6965C359.596 54.6965 356.02 58.2937 354.191 59.9806L352.722 56.7126C352.433 56.1366 351.949 55.6546 351.082 55.6546H347.335C346.374 55.6546 345.506 56.5186 345.506 57.4767V92.1965C345.506 93.2545 346.374 94.0186 347.335 94.0186H354.651C356.191 94.0186 356.77 93.6366 356.77 92.1965V73.3055C356.77 68.7561 360.068 65.0649 364.133 65.0649C368.204 65.0649 371.502 68.7561 371.502 73.3055V92.1965C371.502 93.2545 372.363 94.0186 373.331 94.0186H381.225C382.187 94.0186 383.054 93.2545 383.054 92.1965V73.5935C383.054 63.807 378.718 54.6965 366.782 54.6965ZM415.298 66.9871C414.395 66.3993 411.929 65.0533 408.177 65.0533C402.784 65.0533 398.837 69.4675 398.837 74.8397C398.837 80.212 402.495 84.6203 407.599 84.6203C411.982 84.6203 414.307 81.7167 415.298 79.4361V66.9871ZM427.139 38.9149V92.1967C427.139 93.1548 426.272 94.0188 425.31 94.0188H421.558H421.546C420.69 94.0129 420.212 93.5368 419.929 92.9667L418.425 89.6163C417.233 90.9095 412.955 94.9768 406.153 94.9768C395.662 94.9768 387.674 85.8663 387.674 74.8397C387.674 63.6191 395.273 54.6967 406.731 54.6967C410.584 54.6967 413.569 55.7547 415.298 56.4247V38.9149C415.298 37.9569 416.165 37.0928 417.127 37.0928H425.31C426.272 37.0928 427.139 37.9569 427.139 38.9149ZM300.018 55.6548H292.318C291.162 55.6548 290.489 55.7547 290.005 56.7128L280.376 78.3899H280.282L270.559 56.7128C270.27 56.1367 269.792 55.6548 268.924 55.6548H260.257C258.812 55.6548 258.045 56.9067 258.623 58.1528L274.311 91.3327L265.485 109.995C264.812 111.341 265.679 112.587 267.119 112.587H275.302C276.075 112.587 276.654 112.011 276.943 111.435L301.652 58.1528C302.33 56.9067 301.557 55.6548 300.018 55.6548ZM187.477 84.62H197.353C201.436 84.62 204.705 81.446 204.705 77.2199C204.705 73.1525 200.622 70.1431 196.374 70.1431H187.477V84.62ZM187.477 60.7331H196.215C200.374 60.7331 203.236 57.4827 203.236 53.4153C203.236 49.3479 200.374 46.5031 196.215 46.5031H187.477V60.7331ZM175.923 92.1967V38.915C175.923 37.9569 176.791 37.0929 177.752 37.0929H197.193C206.904 37.0929 214.415 43.5995 214.415 52.1399C214.415 58.3997 209.276 63.2782 205.435 65.0709C209.766 66.4522 216.049 70.8429 216.049 78.3252C216.049 87.4299 208.214 94.0188 198.255 94.0188H177.752C176.791 94.0188 175.923 93.1548 175.923 92.1967ZM330.398 74.7457C330.398 69.3734 326.256 65.0533 321.153 65.0533C315.955 65.0533 311.913 69.3734 311.913 74.7457C311.913 80.212 315.955 84.6203 321.153 84.6203C326.256 84.6203 330.398 80.212 330.398 74.7457ZM340.887 74.7455C340.887 85.7722 332.031 94.9767 321.152 94.9767C310.278 94.9767 301.416 85.7722 301.416 74.7455C301.416 63.907 310.278 54.6965 321.152 54.6965C332.031 54.6965 340.887 63.907 340.887 74.7455ZM273.598 126.387H266.282C264.742 126.387 264.164 126.769 264.164 128.209V147.101C264.164 151.65 260.866 155.341 256.8 155.341C252.735 155.341 249.437 151.65 249.437 147.101V128.209C249.437 127.151 248.57 126.387 247.608 126.387H239.714C238.752 126.387 237.885 127.151 237.885 128.209V146.813C237.885 156.599 242.216 165.709 254.151 165.709C261.338 165.709 264.913 162.112 266.748 160.425L268.217 163.693C268.506 164.269 268.984 164.751 269.851 164.751H273.598C274.56 164.751 275.427 163.887 275.427 162.929V128.209C275.427 127.151 274.56 126.387 273.598 126.387ZM204.705 147.947C204.705 143.88 200.622 140.87 196.374 140.87H187.477V155.347H197.353C201.436 155.347 204.705 152.173 204.705 147.947ZM187.477 131.466H196.215C200.374 131.466 203.236 128.21 203.236 124.142C203.236 120.081 200.374 117.23 196.215 117.23H187.477V131.466ZM216.049 149.052C216.049 158.162 208.214 164.751 198.255 164.751H177.752C176.791 164.751 175.923 163.887 175.923 162.929V109.648C175.923 108.684 176.791 107.825 177.752 107.825H197.193C206.904 107.825 214.415 114.326 214.415 122.867C214.415 129.126 209.276 134.011 205.435 135.798C209.766 137.179 216.049 141.57 216.049 149.052ZM232.227 109.648V162.929C232.227 163.887 231.36 164.751 230.398 164.751H222.504C221.542 164.751 220.675 163.887 220.675 162.929V109.648C220.675 108.684 221.542 107.825 222.504 107.825H230.398C231.36 107.825 232.227 108.684 232.227 109.648Z" fill="#0070F1" fill-rule="evenodd"/>
</svg>